<?xml version="1.0" encoding="UTF-8" standalone="no"?>
<!-- Created with Inkscape (http://www.inkscape.org/) -->

<svg
   width="1080"
   height="1080"
   viewBox="0 0 1080 1080"
   version="1.1"
   id="svg1"
   xmlns:xlink="http://www.w3.org/1999/xlink"
   xmlns="http://www.w3.org/2000/svg"
   xmlns:svg="http://www.w3.org/2000/svg">
  <defs
     id="defs1">
    <linearGradient
       id="linearGradient62">
      <stop
         style="stop-color:#351fff;stop-opacity:0.74912899;"
         offset="0"
         id="stop63" />
      <stop
         style="stop-color:#351fff;stop-opacity:0;"
         offset="1"
         id="stop64" />
    </linearGradient>
    <linearGradient
       id="linearGradient61">
      <stop
         style="stop-color:#351fff;stop-opacity:0.74912899;"
         offset="0"
         id="stop61" />
      <stop
         style="stop-color:#351fff;stop-opacity:0;"
         offset="1"
         id="stop62" />
    </linearGradient>
    <linearGradient
       id="linearGradient58">
      <stop
         style="stop-color:#0005b3;stop-opacity:0.74912899;"
         offset="0"
         id="stop58" />
      <stop
         style="stop-color:#0005b3;stop-opacity:0;"
         offset="1"
         id="stop59" />
    </linearGradient>
    <linearGradient
       id="linearGradient55">
      <stop
         style="stop-color:#0800e3;stop-opacity:1;"
         offset="0"
         id="stop56" />
      <stop
         style="stop-color:#0800e3;stop-opacity:0;"
         offset="1"
         id="stop57" />
    </linearGradient>
    <linearGradient
       id="linearGradient49">
      <stop
         style="stop-color:#0800e3;stop-opacity:1;"
         offset="0"
         id="stop50" />
      <stop
         style="stop-color:#0800e3;stop-opacity:0;"
         offset="1"
         id="stop51" />
    </linearGradient>
    <linearGradient
       id="linearGradient42">
      <stop
         style="stop-color:#0800e3;stop-opacity:0.74912899;"
         offset="0"
         id="stop42" />
      <stop
         style="stop-color:#0800e3;stop-opacity:0;"
         offset="1"
         id="stop43" />
    </linearGradient>
    <radialGradient
       xlink:href="#linearGradient42"
       id="radialGradient43"
       cx="635.7262"
       cy="506.08441"
       fx="635.7262"
       fy="506.08441"
       r="388.84622"
       gradientTransform="matrix(1,0,0,1.122434,0,-61.961939)"
       gradientUnits="userSpaceOnUse" />
    <linearGradient
       xlink:href="#linearGradient49"
       id="linearGradient51"
       x1="5.9276222"
       y1="729.09752"
       x2="276.62237"
       y2="729.09752"
       gradientUnits="userSpaceOnUse" />
    <linearGradient
       xlink:href="#linearGradient55"
       id="linearGradient57"
       x1="0.95438111"
       y1="550.00702"
       x2="1001.5004"
       y2="550.00702"
       gradientUnits="userSpaceOnUse" />
    <linearGradient
       xlink:href="#linearGradient58"
       id="linearGradient59"
       x1="109.12391"
       y1="526.96577"
       x2="835.96426"
       y2="526.96577"
       gradientUnits="userSpaceOnUse" />
    <radialGradient
       xlink:href="#linearGradient61"
       id="radialGradient62"
       cx="515.7887"
       cy="391.38151"
       fx="515.7887"
       fy="391.38151"
       r="138.39681"
       gradientTransform="matrix(1,0,0,2.2312781,0,-481.8995)"
       gradientUnits="userSpaceOnUse" />
    <linearGradient
       xlink:href="#linearGradient62"
       id="linearGradient64"
       x1="300.33286"
       y1="1026.4666"
       x2="727.12165"
       y2="1026.4666"
       gradientUnits="userSpaceOnUse" />
  </defs>
  <g
     id="layer1">
    <path
       style="fill:#000000"
       d="M 181.63001,202.58732 428.92626,93.609314"
       id="path1" />
    <path
       style="fill:#0000d4;fill-opacity:1"
       d="M 84.303959,319.76229 C 129.74906,175.85279 227.88414,134.35944 232.82294,106.03842 237.76175,77.717411 149.5078,62.569344 103.73335,207.79914 57.958907,353.02894 54.665849,658.62469 217.34943,811.42562 c 162.68359,152.80092 491.33073,152.80092 655.6576,152.4716 164.32687,-0.32932 164.32687,-0.98793 0.32603,-2.3052 C 709.33223,960.27475 381.34369,958.29892 213.72364,834.1457 46.103584,709.99249 38.858857,463.67178 84.303959,319.76229 Z"
       id="path5" />
    <path
       style="fill:url(#linearGradient57);fill-opacity:1;stroke:none;stroke-opacity:1"
       d="M 987.93703,999.79227 C 889.51397,1042.5627 777.82819,1044.5836 671.46081,1030.3572 565.09343,1016.1309 461.39121,986.52921 355.65733,968.17829 326.63214,963.14075 297.43461,958.94735 268.71887,952.3713 229.98644,943.50138 191.48882,929.89505 160.2545,905.33302 144.63733,893.052 131.00859,878.09151 121.1399,860.8483 c -9.86868,-17.24321 -15.90381,-36.80669 -16.41857,-56.66756 -0.56432,-21.77282 5.45511,-43.31387 14.44539,-63.15194 8.99028,-19.83807 20.90535,-38.18808 32.78643,-56.44223 11.88108,-18.25415 23.823,-36.58374 32.87385,-56.39425 9.05085,-19.8105 15.16754,-41.31648 14.73628,-63.09234 -0.47015,-23.73954 -8.74655,-46.88751 -21.05711,-67.19113 C 166.19562,477.60522 149.95846,459.945 132.65844,443.68165 98.05841,411.15497 58.295012,383.08657 31.613985,343.80209 6.8205853,307.29691 -5.0922014,260.88588 5.1050262,217.95154 10.20364,196.48437 20.744442,176.22758 35.996957,160.28406 c 15.252515,-15.94353 35.247691,-27.45351 56.869124,-31.85225 10.770779,-2.19124 21.806499,-2.63704 32.752149,-3.63895 10.94566,-1.0019 21.9926,-2.60712 32.09114,-6.94656 10.09854,-4.33944 19.2634,-11.70976 23.80915,-21.717133 2.27287,-5.003684 3.33385,-10.590779 2.77476,-16.057973 -0.5591,-5.467195 -2.7744,-10.794863 -6.46461,-14.86735 -4.19618,-4.630867 -10.15222,-7.487816 -16.32275,-8.476436 -6.17053,-0.988619 -12.5423,-0.191617 -18.50251,1.686863 -11.92043,3.75696 -22.03206,11.597881 -32.35446,18.644817 -16.786835,11.4601 -34.93847,21.279835 -49.396854,35.565732 -24.987827,24.68972 -36.4442,61.02744 -35.343955,96.13817 1.100245,35.11073 13.785919,69.07611 31.392207,99.47336 27.313375,47.15653 66.059952,86.41991 100.769572,128.43182 19.50568,23.60933 37.97716,48.46908 50.44354,76.4416 12.46638,27.97252 18.6499,59.47407 12.78443,89.53182 -4.44795,22.79362 -15.52396,43.71604 -27.45081,63.64301 -11.92684,19.92696 -24.91414,39.38123 -33.80128,60.83705 -11.86178,28.63736 -16.01298,60.66933 -10.20183,91.11651 5.81115,30.44718 21.82524,59.12198 45.76756,78.80866 23.94349,19.68764 54.51955,29.73779 85.13615,34.58734 30.61659,4.84956 61.75925,4.8993 92.69252,6.90602 60.98343,3.95614 121.40839,15.57544 179.80454,33.58986 72.33028,22.31291 142.05835,54.50776 216.75707,66.74036 37.34936,6.1163 75.87129,7.0865 112.87346,-0.8648 37.00216,-7.9513 72.47828,-25.1772 99.13414,-52.04444 2.15842,-2.17553 4.31145,-4.45164 7.0382,-5.8504 1.36338,-0.69938 2.86206,-1.16501 4.39322,-1.22398 1.53116,-0.059 3.0957,0.30421 4.37557,1.14675 0.94912,0.6248 1.72549,1.50163 2.2625,2.50306 0.5369,1.00143 0.8366,2.12482 0.9057,3.25903 0.1382,2.26841 -0.6483,4.53599 -1.94399,6.40308 -1.29568,1.86709 -3.07621,3.35792 -5.00543,4.55914 -1.92921,1.20122 -4.01383,2.12867 -6.09815,3.03443 z"
       id="path7" />
    <path
       style="fill:url(#linearGradient59);fill-opacity:0.749129"
       d="M 248.96013,553.24474 C 232.79168,495.2981 194.6754,445.52866 150.16643,405.05418 c -7.3478,-6.68176 -14.90458,-13.16843 -21.60226,-20.50172 -6.69769,-7.33329 -12.56287,-15.60338 -15.93935,-24.94338 -3.49054,-9.65551 -4.20161,-20.19276 -2.88014,-30.37444 1.32148,-10.18167 4.62458,-20.0337 8.93457,-29.35232 8.61998,-18.63724 21.17649,-35.14023 31.48718,-52.89806 12.84522,-22.12298 22.19664,-46.18352 35.77846,-67.86207 6.79091,-10.83928 14.66223,-21.08438 24.15306,-29.65938 9.49083,-8.575 20.66091,-15.45458 32.93456,-19.05512 21.21789,-6.22439 44.91313,-2.05991 63.63901,9.69947 18.72589,11.75937 32.5103,30.67081 39.56483,51.62732 7.05454,20.95651 7.59949,43.82658 3.20866,65.49828 -4.39083,21.67169 -13.58537,42.19294 -25.40166,60.88296 -6.25353,9.89131 -13.29554,19.36349 -21.80932,27.39219 -8.51379,8.0287 -18.56761,14.59619 -29.73561,18.09198 -11.16799,3.49579 -23.4937,3.78532 -34.4819,-0.24011 -10.9882,-4.02543 -20.4632,-12.57107 -24.62212,-23.50944 -2.10333,-5.53196 -2.83595,-11.65143 -1.59728,-17.43867 1.23867,-5.78725 4.53147,-11.19978 9.3974,-14.56864 2.43297,-1.68443 5.23253,-2.84871 8.15352,-3.32251 2.92098,-0.47379 5.9602,-0.25082 8.76065,0.70529 2.80044,0.95611 5.35402,2.64978 7.27602,4.8998 1.92199,2.25002 3.20053,5.05479 3.57542,7.99011 0.56843,4.45067 -0.90364,8.87516 -1.50786,13.3211 -0.30211,2.22298 -0.38466,4.50489 0.1101,6.69306 0.49475,2.18818 1.60872,4.28731 3.37364,5.67221 1.06589,0.83638 2.34281,1.39214 3.67266,1.65128 1.32985,0.25913 2.71099,0.22521 4.03764,-0.0498 2.6533,-0.55009 5.04411,-2.04823 6.98913,-3.9349 3.89003,-3.77335 6.03568,-8.94391 9.01105,-13.47354 4.91501,-7.48249 12.08776,-13.18556 19.48902,-18.22207 7.40126,-5.0365 15.18658,-9.56579 22.00434,-15.36779 17.16433,-14.60705 27.17755,-37.32753 26.11812,-59.84103 -1.05943,-22.5135 -13.25676,-44.28747 -32.04574,-56.73553 -12.37722,-8.20015 -27.26801,-12.36729 -42.11475,-12.47826 -14.84674,-0.11097 -29.62235,3.75521 -42.84784,10.50238 -26.41862,13.47783 -46.28887,38.4092 -55.61475,66.56276 -9.32589,28.15357 -8.46689,59.2198 0.29028,87.55542 13.25445,42.88746 43.23222,78.36308 63.22797,118.55244 25.29449,50.83927 34.08343,108.01431 43.55938,164.00224 9.47595,55.98794 20.43416,113.12098 49.3067,162.01698 38.80566,65.71787 108.23164,110.71573 182.82606,126.85235 74.59442,16.13662 153.62037,4.92188 224.204,-24.1069 11.11337,-4.57057 22.08616,-9.58542 33.62488,-12.9403 11.53872,-3.35488 23.81273,-5.00667 35.60411,-2.69138 5.89569,1.15765 11.61965,3.31073 16.67507,6.55758 5.05542,3.24685 9.43015,7.6029 12.46995,12.78546 3.03981,5.18255 4.71498,11.19768 4.52662,17.203 -0.18835,6.00532 -2.27885,11.97653 -6.08281,16.62725 -5.15309,6.30018 -13.10871,9.8423 -21.16053,11.03181 -8.05181,1.1895 -16.26448,0.23495 -24.28457,-1.15244 -22.53932,-3.89906 -44.45734,-11.2011 -67.17972,-13.83112 -47.46789,-5.4942 -94.66206,9.64252 -142.26293,13.83112 C 508.8917,930.52438 440.71812,914.35173 385.45146,877.65034 330.18481,840.94895 288.50334,783.64424 272.67062,719.21816 259.31534,664.87323 264.0003,607.14769 248.96013,553.24474 Z"
       id="path10" />
    <path
       style="fill:url(#radialGradient43);fill-opacity:0.749129"
       d="m 246.98426,108.67307 c 0.53842,-7.15401 3.19279,-14.105996 7.37799,-19.93299 4.1852,-5.826994 9.87331,-10.531743 16.28267,-13.755091 12.8187,-6.446696 28.2151,-6.789698 41.92033,-2.541681 13.70523,4.248017 25.80223,12.804016 35.75822,23.136355 9.956,10.332337 17.90484,22.423677 25.11673,34.828027 31.80626,54.70633 50.35252,119.81024 37.5416,181.78041 -11.09024,53.64674 -44.25891,100.06353 -61.25209,152.1423 -11.6871,35.81731 -15.50575,74.55749 -8.07675,111.49363 7.429,36.93613 26.51037,71.90655 55.49773,95.97315 27.19945,22.5822 61.75902,34.77735 96.61258,40.69301 34.85356,5.91567 70.39259,5.96358 105.73438,6.8143 35.34179,0.85071 70.99401,2.56853 105.15119,11.68184 34.15719,9.1133 67.07681,26.23084 89.65253,53.43567 17.22896,20.76174 27.59409,46.18668 39.01882,70.62768 11.42472,24.441 24.74445,49.02003 45.94377,65.70763 17.04812,13.41988 38.54405,20.90468 60.22554,21.70749 21.68149,0.80282 43.4645,-4.97426 62.2786,-15.77987 4.4376,-2.54869 8.7413,-5.38953 12.4698,-8.89481 3.7284,-3.50528 6.8777,-7.70884 8.6953,-12.49265 1.8175,-4.78381 2.239,-10.17487 0.6781,-15.04845 -0.7805,-2.43679 -2.048,-4.72377 -3.7524,-6.63222 -1.7044,-1.90845 -3.8479,-3.43272 -6.2355,-4.35284 -3.8243,-1.47383 -8.1598,-1.34462 -12.058,-0.0791 -3.89824,1.26552 -7.38354,3.61071 -10.37494,6.41236 -5.98279,5.60329 -10.02083,12.92624 -15.10868,19.3531 -10.57263,13.35511 -26.01842,22.82282 -42.76858,25.91661 -16.75016,3.09378 -34.65732,-0.27412 -48.99482,-9.4706 -14.33751,-9.19649 -24.90791,-24.17191 -28.50956,-40.82025 -3.60165,-16.64835 -0.1173,-34.76005 9.62402,-48.7331 6.4319,-9.22599 15.25339,-16.46108 23.69094,-23.89721 8.43754,-7.43613 16.77008,-15.41762 21.75416,-25.49964 5.09818,-10.31283 6.3217,-22.37068 4.06238,-33.6508 -2.25932,-11.28013 -7.89846,-21.76947 -15.55662,-30.35424 -15.31633,-17.16955 -37.97387,-26.30268 -60.69165,-29.94767 -22.71777,-3.64499 -45.89081,-2.3558 -68.89456,-1.89654 -23.00375,0.45925 -46.41734,0.018 -68.3622,-6.8962 -4.94489,-1.558 -9.79484,-3.43943 -14.8309,-4.67124 -5.03606,-1.23182 -10.33845,-1.79823 -15.40217,-0.68557 -2.53186,0.55633 -4.98197,1.53409 -7.13461,2.97838 -2.15264,1.44429 -4.00232,3.3622 -5.26208,5.62778 -1.25976,2.26557 -1.91582,4.88156 -1.75361,7.46874 0.1622,2.58718 1.16053,5.13379 2.89002,7.06477 1.85042,2.066 4.46153,3.36225 7.17713,3.92609 2.71561,0.56384 5.53772,0.43342 8.27184,-0.0324 5.46824,-0.93169 10.66418,-3.17917 16.16501,-3.89367 7.64963,-0.9936 15.3977,1.04696 22.52004,4.00945 7.12234,2.96249 13.83125,6.84863 20.94919,9.82167 15.97238,6.67139 33.53267,8.55533 50.83672,8.99598 17.30405,0.44064 34.65339,-0.48682 51.90873,0.88339 14.4854,1.15025 29.06171,3.9983 41.95906,10.6922 12.89735,6.6939 24.03612,17.57437 28.87883,31.27466 2.42136,6.85015 3.22059,14.30693 2.00091,21.46933 -1.21967,7.16239 -4.49253,14.0065 -9.52575,19.24617 -5.03323,5.23967 -11.83807,8.8142 -19.05075,9.68874 -7.21267,0.87454 -14.77828,-1.02199 -20.55181,-5.43264 -4.62453,-3.53288 -7.99589,-8.52719 -10.22314,-13.9037 -2.22726,-5.37651 -3.36652,-11.14391 -4.09016,-16.91833 -1.44727,-11.54883 -1.32991,-23.49454 -5.44544,-34.38181 -4.09472,-10.83223 -12.26112,-19.90666 -22.13424,-25.95857 -9.87311,-6.05191 -21.37466,-9.1858 -32.92836,-9.97069 -23.1074,-1.56977 -45.79899,5.94758 -67.44159,14.19464 -71.12454,27.10251 -140.63309,63.67062 -216.53924,69.28342 -37.95307,2.8064 -77.12473,-2.62031 -110.89879,-20.15953 -33.77407,-17.53923 -61.63803,-47.98405 -71.68853,-84.68962 -6.28362,-22.94849 -5.51962,-47.48262 -0.0509,-70.63883 5.46873,-23.15622 15.50766,-45.03504 27.50542,-65.58184 23.99553,-41.09359 55.8478,-77.22859 79.24267,-118.66709 24.87967,-44.06848 39.86848,-95.54477 31.81052,-145.50573 -4.02897,-24.98048 -13.86949,-49.17347 -29.53229,-69.04642 -15.66279,-19.87294 -37.25068,-35.26993 -61.55446,-42.31147 -24.2009,-7.01173 -50.21914,-5.72059 -74.39665,-12.81253 -12.08876,-3.54597 -23.77036,-9.32036 -32.58397,-18.32216 -4.4068,-4.50089 -8.05152,-9.77946 -10.45958,-15.60004 -2.40806,-5.82059 -3.56085,-12.18784 -3.08811,-18.46912 z"
       id="path11" />
    <path
       style="fill:#351fff;fill-opacity:0.749129;fill-rule:nonzero;stroke:none"
       d="M 375.41607,296.38111 260.81538,422.83705 361.58495,365.5367 225.24964,387.27132 302.30873,537.43774 312.1881,442.59579 276.62237,549.29299 250.93601,379.36782 Z"
       id="path18-5"
       transform="matrix(-0.20836724,-0.5887954,0.66920986,-0.18332915,395.3308,1079.4547)" />
    <path
       d="m 262.79125,410.9818 27.66224,175.8528 82.98671,-258.83951 -49.39685,39.51748 53.3486,-13.83111 -23.71049,27.66223 -29.63811,29.63811 43.46922,-15.80699 -61.25209,71.13147 19.75874,39.51748 -47.42098,53.3486 7.9035,-63.22797 -29.63811,-27.66224 39.51748,-31.61398 z"
       id="path22"
       style="fill:#351fff" />
    <path
       style="fill:#351fff;fill-opacity:0.749129;fill-rule:nonzero;stroke:none"
       d="m 262.29732,411.0595 c 6.71622,42.69593 16.22784,103.16266 27.66224,175.8528 a 0.50000009,0.4999999 49.418429 0 0 0.97006,0.075 c 24.94703,-77.811 52.94492,-165.13772 82.98671,-258.83951 a 0.5,0.5 79.558458 0 0 -0.78848,-0.54308 c -15.66617,12.53294 -32.26613,25.8129 -49.39685,39.51748 a 0.5,0.5 18.401817 0 0 0.43783,0.87443 c 16.90131,-4.38182 34.28098,-8.88766 51.80719,-13.43149 -6.85172,7.99367 -14.80202,17.26903 -22.66169,26.43863 -10.06237,10.06237 -20.00568,20.00568 -29.62453,29.62454 a 0.5,0.5 12.536956 0 0 0.52442,0.82345 c 14.50217,-5.27352 28.50149,-10.36418 41.67072,-15.15299 -18.93017,21.98342 -39.0959,45.40169 -60.00334,69.68131 a 0.5,0.5 52.083167 0 0 -0.0683,0.54987 c 6.36721,12.73442 12.94768,25.89536 19.60735,39.2147 -15.14743,17.04085 -30.69327,34.52992 -46.12656,51.89238 2.60619,-20.84957 5.1907,-41.52563 7.70382,-61.63056 a 0.5,0.5 25.075153 0 0 -0.15498,-0.42755 c -10.12445,-9.44948 -19.93991,-18.61058 -29.21528,-27.26759 14.13462,-11.3077 27.3114,-21.84912 39.06584,-31.25267 a 0.50000003,0.49999997 44.372779 0 0 -0.009,-0.78761 C 282.8002,425.65333 271.25038,416.82111 263.09498,410.58462 Z m 0.1902,0.31948 c 8.05579,6.1603 19.42357,14.85332 33.08209,25.29807 -11.7534,9.40273 -24.91273,19.93019 -39.01833,31.21467 a 0.5,0.5 47.18248 0 0 -0.0288,0.75596 c 9.3428,8.71994 19.2391,17.9565 29.45146,27.48803 -2.56734,20.53873 -5.20893,41.67149 -7.87183,62.97463 a 0.49999774,0.50001161 69.378625 0 0 0.86986,0.39418 c 15.78439,-17.75743 31.69349,-35.65517 47.42096,-53.34858 a 0.49999984,0.50000025 52.534236 0 0 0.0735,-0.55579 c -6.65944,-13.31889 -13.24073,-26.48146 -19.6099,-39.2198 21.2902,-24.72411 41.80913,-48.55254 61.03492,-70.87928 a 0.5,0.5 9.9915533 0 0 -0.54975,-0.79616 c -13.052,4.74618 -26.94377,9.79774 -41.35113,15.03678 9.12616,-9.12616 18.53215,-18.53215 28.04444,-28.04445 a 0.50002949,0.49997023 87.804037 0 0 0.0261,-0.0282 c 7.86373,-9.17436 15.81829,-18.45467 23.71048,-27.66222 a 0.49999924,0.50000586 13.03374 0 0 -0.5051,-0.80941 c -17.26619,4.47642 -34.39971,8.91844 -51.08375,13.24393 14.83257,-11.86606 30.99019,-24.79216 46.27517,-37.02014 -29.27783,91.31895 -57.05286,177.9506 -81.83767,255.2556 -11.2887,-71.76384 -20.68299,-131.48472 -27.33504,-173.77275 z"
       id="path20" />
    <path
       d="m 235.12901,628.32795 -55.32447,86.93846 88.91433,106.6972 98.7937,67.17972 -23.71048,-35.56574 -35.56574,5.92763 -11.85524,-53.3486 -59.27622,17.78286 13.83112,-69.15559 -67.17972,1.97587 25.68636,-79.03496 27.66224,55.32448 3.95175,-47.42098 -31.61399,23.71049 z"
       id="path24"
       style="fill:#351fff" />
    <path
       style="fill:#351fff;fill-opacity:0.749129;fill-rule:nonzero;stroke:none"
       d="m 234.70718,628.05951 c -13.43243,21.1081 -32.45567,51.00177 -55.32447,86.93846 a 0.49999984,0.50000012 41.332805 0 0 0.0377,0.58853 c 26.72897,32.07476 56.7267,68.07204 88.91433,106.6972 a 0.5,0.5 87.205047 0 0 0.10295,0.0934 c 31.33236,21.306 64.53227,43.88195 98.7937,67.17972 a 0.5,0.5 0.26202985 0 0 0.69719,-0.69081 c -7.73185,-11.59778 -15.68896,-23.53344 -23.71048,-35.56574 a 0.50000158,0.50002258 68.424301 0 0 -0.49824,-0.21584 c -11.68192,1.94698 -23.45493,3.90915 -35.09825,5.84971 -3.99171,-17.96272 -7.93592,-35.71165 -11.75243,-52.88596 a 0.5,0.5 75.384265 0 0 -0.63176,-0.37044 c -20.3845,6.11534 -40.04042,12.01212 -58.47903,17.5437 4.30893,-21.54467 8.90311,-44.51556 13.66789,-68.33946 a 0.5,0.5 4.8121357 0 0 -0.50499,-0.59784 c -21.5864,0.63489 -43.8937,1.29098 -66.47006,1.95499 8.17437,-25.15193 16.6637,-51.27294 25.08981,-77.19944 9.17362,18.34723 18.27146,36.54291 27.11662,54.23323 a 0.5,0.5 34.099943 0 0 0.94548,-0.18209 c 1.37046,-16.44549 2.69846,-32.38145 3.95175,-47.42098 a 0.5,0.5 73.946545 0 0 -0.79827,-0.44152 c -10.9461,8.20958 -21.17992,15.88494 -30.3658,22.77435 10.40768,-32.82425 19.07086,-60.14659 25.21479,-79.52358 z m -0.0548,0.11732 c -6.23648,19.66891 -15.0687,47.52437 -25.68636,81.01084 a 0.50000003,0.49999998 80.361266 0 0 0.77662,0.55112 c 9.25664,-6.94248 19.61587,-14.7119 30.72325,-23.04244 -1.11564,13.38768 -2.39316,28.71789 -3.71121,44.5345 -8.76978,-17.53956 -17.7819,-35.56381 -26.86483,-53.72965 a 0.49999836,0.50001583 40.718841 0 0 -0.92274,0.0691 c -8.54987,26.3073 -17.1673,52.82247 -25.68635,79.03493 a 0.49999989,0.50000014 8.1597446 0 0 0.49022,0.65432 c 22.59952,-0.66469 44.93431,-1.32159 66.55147,-1.95739 -4.78094,23.90466 -9.3889,46.94446 -13.70786,68.53927 a 0.5,0.5 87.301335 0 0 0.63396,0.57697 c 18.51381,-5.55414 38.26671,-11.48 58.76112,-17.62833 3.81299,17.15845 7.75245,34.88603 11.73858,52.82363 a 0.49999987,0.50000009 79.004433 0 0 0.57029,0.38473 c 11.6897,-1.94829 23.5132,-3.91887 35.24685,-5.87448 7.35178,11.02767 14.8261,22.23917 22.11054,33.16583 -32.1225,-21.8433 -65.30257,-44.40575 -96.61788,-65.70016 -32.04892,-38.4587 -61.9656,-74.35872 -88.63567,-106.3628 22.7815,-35.79949 41.73442,-65.58266 55.12845,-86.63042 z"
       id="path23" />
    <path
       d="m 339.85034,764.66326 77.05909,86.93846 148.19055,37.54161 23.71049,-17.78287 -71.13147,21.73461 -1.97587,-39.51748 -55.32447,23.71049 -15.807,-49.39685 -73.10734,-11.85524 88.91434,-7.9035 -94.84196,-15.80699 5.92762,-17.78287 z"
       id="path26"
       style="fill:#351fff" />
    <path
       style="fill:#351fff;fill-opacity:0.749129;fill-rule:nonzero;stroke:none"
       d="m 339.47617,764.99491 c 18.14627,20.47272 44.83891,50.58749 77.05909,86.93846 a 0.50000043,0.4999995 76.331577 0 0 0.25138,0.15304 c 44.60925,11.30101 94.72823,23.99782 148.19055,37.54161 a 0.5,0.5 33.68699 0 0 0.42279,-0.0847 c 7.56502,-5.67377 15.54844,-11.66133 23.71049,-17.78287 a 0.50000004,0.49999997 18.069636 0 0 -0.44611,-0.87818 c -23.22843,7.09758 -46.93911,14.34251 -70.51802,21.54717 -0.65783,-13.15676 -1.31154,-26.23102 -1.94383,-38.87684 a 0.49999404,0.50000883 76.969209 0 0 -0.69635,-0.43459 c -19.18251,8.22108 -37.66084,16.14036 -54.81892,23.49383 -4.89577,-15.29927 -10.16729,-31.77276 -15.63936,-48.873 a 0.50001939,0.49997337 85.731976 0 0 -0.39617,-0.34117 c -22.51287,-3.65073 -45.75973,-7.42049 -69.17027,-11.2168 28.4157,-2.52584 56.95855,-5.06298 84.94149,-7.55035 a 0.49999994,0.50000006 47.191362 0 0 0.0379,-0.99124 c -32.4407,-5.40678 -64.17592,-10.69598 -94.26478,-15.71079 2.06912,-6.20738 4.00977,-12.02932 5.74258,-17.22776 a 0.50000002,0.49999999 17.894483 0 0 -0.3252,-0.63535 c -13.21854,-4.13079 -24.16936,-7.55292 -31.61398,-9.87937 z m 0.22503,0.14559 c 7.35313,2.29785 18.12681,5.66463 31.12765,9.72739 -1.7436,5.23082 -3.69213,11.07641 -5.76649,17.2995 a 0.5,0.5 13.964524 0 0 0.39214,0.65131 c 29.06477,4.84412 59.67352,9.94558 90.97641,15.16273 -28.03792,2.49226 -56.60401,5.03147 -85.01086,7.55652 a 0.50000718,0.49999642 47.065109 0 0 -0.0357,0.9916 c 24.6349,3.99484 49.12415,7.96607 72.8046,11.80614 5.50113,17.19101 10.79838,33.74491 15.71354,49.10478 a 0.5,0.5 69.524057 0 0 0.67317,0.30718 c 17.10376,-7.33018 35.52943,-15.2269 54.66402,-23.42744 0.6314,12.62802 1.28378,25.67568 1.93998,38.79982 a 0.50001051,0.5000023 80.073506 0 0 0.64549,0.45321 c 22.85858,-6.98456 45.84605,-14.00851 68.40277,-20.90083 -5.81074,4.35805 -13.72844,10.29632 -21.23674,15.92755 -53.17108,-13.47001 -103.23789,-26.1536 -147.80967,-37.44512 -32.17445,-36.29939 -58.82986,-66.37215 -76.95696,-86.82323 z"
       id="path25" />
    <path
       d="m 43.469229,401.10243 -21.734614,90.89021 25.686362,-37.54161 -37.5416067,-5.92762 11.8552447,136.33531 21.734614,15.80699 3.951748,-31.61398 -27.662236,47.42098 37.541607,81.01083 29.638111,-3.95175 -15.806993,69.1556 -5.927622,-88.91434 -41.493355,27.66224 49.396851,199.56328 h 23.710489 l -77.059088,-98.7937 11.855244,158.06992 -15.806993,75.08321 82.986711,-25.6864 -45.445103,-3.9517 -3.951749,39.5175 -31.613984,-79.03499 69.155592,-3.95174 15.806991,-43.46923 -49.39685,73.10734 90.89021,-19.75874 -7.9035,-35.56574 -21.73461,69.1556 73.10734,-65.20385 49.39685,35.56573 -84.96259,69.15562 19.75874,-53.34862 102.74545,65.20382 1.97588,-75.08319 -92.86608,73.10729 41.49335,-102.7454 -61.25209,-5.92763 -61.2521,96.81783 5.92762,-106.6972 41.49336,-25.68636 L 112.62482,891.1192 98.793703,819.98773 15.806992,776.5185 45.445103,733.04928 27.662237,667.84543 49.396851,626.35208 11.855244,586.8346 45.445103,515.70313 5.9276222,519.65488 Z"
       id="path30"
       style="fill:#351fff" />
    <path
       style="fill:url(#linearGradient51);fill-opacity:1;fill-rule:nonzero;stroke:none"
       d="m 42.98294,400.98614 c -6.364711,26.61607 -13.642317,57.04969 -21.734614,90.89021 a 0.5,0.5 68.913995 0 0 0.898943,0.39863 c 7.923256,-11.58014 16.507368,-24.12615 25.686338,-37.54157 a 0.49999861,0.50002733 21.677189 0 0 -0.334649,-0.77626 C 35.642037,452.085 23.105975,450.10563 9.9573655,448.02953 a 0.50001177,0.49995961 2.0021615 0 0 -0.5761199,0.53714 c 3.7954764,43.64798 7.7525804,89.15467 11.8552494,136.33536 a 0.5,0.5 15.528815 0 0 0.204034,0.36106 c 7.020368,5.10572 14.273226,10.38052 21.734629,15.807 a 0.49998716,0.5000149 21.575425 0 0 0.790213,-0.34238 c 1.284487,-10.27591 2.602968,-20.82375 3.951745,-31.61396 a 0.49999867,0.50000164 63.69057 0 0 -0.92803,-0.31395 c -9.034123,15.48707 -18.262423,31.30701 -27.662237,47.42098 a 0.5000194,0.49998695 47.697432 0 0 -0.02176,0.46217 c 12.306451,26.55602 24.829524,53.57949 37.541609,81.01083 a 0.49998261,0.50000618 73.771228 0 0 0.519736,0.28537 c 9.513462,-1.26846 19.161013,-2.5548 28.924086,-3.85654 -4.802462,21.01077 -9.821123,42.96742 -14.886913,65.13025 -1.884281,-28.26422 -3.78561,-56.78416 -5.70087,-85.51307 a 0.49999769,0.50004383 71.246611 0 0 -0.776302,-0.38273 c -13.736548,9.1577 -27.57547,18.38365 -41.493296,27.6622 a 0.50000033,0.49999991 66.203629 0 0 -0.208003,0.53617 c 16.382786,66.18645 32.857407,132.74392 49.396853,199.56328 a 0.49999238,0.50000099 83.048775 0 0 0.485352,0.37986 c 7.877084,0 15.784801,0 23.710488,0 a 0.50009883,0.49998832 71.018991 0 0 0.394141,-0.80766 C 71.570019,867.81662 45.870195,834.86813 20.153102,801.8975 a 0.50007594,0.49997824 23.882966 0 0 -0.892961,0.34476 c 3.9494,52.65867 7.901448,105.35264 11.84993,157.99906 -5.271669,25.04043 -10.53856,50.05818 -15.792355,75.01368 a 0.49999694,0.50000342 87.344867 0 0 0.637123,0.5806 c 27.746626,-8.5882 55.423678,-17.1549 82.986706,-25.6864 a 0.49999998,0.50000003 38.885561 0 0 -0.104528,-0.9757 c -15.220176,-1.3235 -30.376863,-2.6415 -45.445103,-3.9517 a 0.50000005,0.49999996 5.3401361 0 0 -0.540833,0.4483 c -1.257227,12.5723 -2.507373,25.0738 -3.748522,37.4853 -9.781783,-24.4545 -20.239862,-50.5997 -30.59736,-76.49345 23.063683,-1.31792 45.898438,-2.62276 68.461785,-3.91209 a 0.49999583,0.50009849 8.3586338 0 0 0.441393,-0.32838 c 5.339066,-14.68243 10.611647,-29.18203 15.806973,-43.46917 a 0.5000007,0.49999919 72.014605 0 0 -0.88419,-0.4508 c -16.7344,24.76691 -33.212297,49.1542 -49.396827,73.1073 a 0.49997051,0.50002843 10.892981 0 0 0.520432,0.76857 c 15.293819,-3.32474 30.445267,-6.61854 45.445155,-9.87938 14.99989,-3.26085 30.15134,-6.55464 45.44515,-9.87938 a 0.50001997,0.49994902 77.603189 0 0 0.38183,-0.59706 c -2.58953,-11.65287 -5.22599,-23.51696 -7.9035,-35.56573 a 0.49999946,0.50000075 47.459122 0 0 -0.96509,-0.0414 c -7.14357,22.72954 -14.39336,45.79709 -21.73458,69.15551 a 0.50003962,0.49998723 77.861412 0 0 0.80978,0.5231 c 23.99422,-21.4002 48.27877,-43.0594 72.80794,-64.93678 15.81633,11.38776 32.11486,23.1227 48.5415,34.94988 -27.14581,22.09544 -55.00841,44.7743 -83.03553,67.5871 5.84429,-15.7796 12.36246,-33.3787 18.90775,-51.05096 33.95307,21.54716 68.04561,43.18276 102.2234,64.87256 a 0.5000046,0.49999695 16.953861 0 0 0.76775,-0.409 c 0.65733,-24.9786 1.3163,-50.0195 1.97587,-75.08313 a 0.50005791,0.49999245 71.650614 0 0 -0.8091,-0.40613 c -30.45154,23.97246 -60.93017,47.96626 -91.38946,71.94486 13.61279,-33.7079 27.21624,-67.39258 40.78957,-101.00272 a 0.4999975,0.50012047 13.761339 0 0 -0.4154,-0.68506 c -20.47469,-1.98142 -40.90295,-3.95835 -61.25209,-5.92762 a 0.50000335,0.49999419 18.923347 0 0 -0.4707,0.23035 c -20.16284,31.8703 -40.24799,63.61775 -60.22362,95.19215 1.87667,-33.7801 3.84883,-69.27909 5.80645,-104.51625 13.86983,-8.58608 27.63514,-17.10746 41.27177,-25.54918 a 0.5,0.5 43.009401 0 0 -0.0303,-0.86759 c -12.57173,-6.6167 -25.02259,-13.16978 -37.32944,-19.64707 -4.6542,-23.9359 -9.25239,-47.58375 -13.785347,-70.8961 a 0.49996616,0.5000277 8.3190161 0 0 -0.258795,-0.34749 C 71.096589,804.91528 43.580198,790.50193 16.536471,776.33617 26.498413,761.72532 36.28017,747.37875 45.858215,733.33095 a 0.49998771,0.50001016 54.515048 0 0 0.06927,-0.41322 c -6.051412,-22.18852 -11.967297,-43.8801 -17.731176,-65.01432 7.429317,-14.18324 14.651687,-27.9714 21.643457,-41.31933 a 0.5,0.5 37.057389 0 0 -0.08042,-0.57637 C 36.852522,612.42157 24.400642,599.31433 12.453581,586.73848 24.16486,561.93812 35.332357,538.2893 45.897227,515.91663 a 0.50002196,0.49999831 9.7828649 0 0 -0.501912,-0.71102 C 31.565143,516.58863 18.612769,517.88387 6.6335709,519.08179 20.51939,475.23183 33.012451,435.78006 43.9459,401.25338 Z m 0.0096,-0.0347 C 31.998966,435.66809 19.428556,475.36413 5.4509511,519.50393 a 0.5,0.5 5.9303826 0 0 0.526423,0.64847 c 11.9363339,-1.19364 24.8475549,-2.48476 38.6383289,-3.86384 -10.497369,22.22973 -21.58739,45.71448 -33.212571,70.33251 a 0.49996792,0.50004514 35.871661 0 0 0.0896,0.55789 c 11.942994,12.57157 24.391354,25.67511 37.295177,39.25808 -6.968674,13.30383 -14.166002,27.04418 -21.568601,41.17642 a 0.50016827,0.49986856 51.208009 0 0 -0.03944,0.36357 c 5.760921,21.12339 11.673791,42.80391 17.722145,64.98121 -9.63795,14.13566 -19.481982,28.57357 -29.508137,43.2786 a 0.50000808,0.49999544 30.966345 0 0 0.18112,0.72458 c 27.135017,14.21358 54.746467,28.67672 82.773778,43.35769 4.532966,23.31239 9.131116,46.96003 13.785236,70.89553 a 0.50000133,0.49999799 8.3776191 0 0 0.25794,0.34702 c 12.12337,6.38072 24.38666,12.83508 36.76775,19.35144 -13.46605,8.33613 -27.05707,16.74961 -40.74981,25.22607 a 0.50032113,0.49996961 75.721709 0 0 -0.23606,0.39755 c -1.96236,35.32255 -3.93935,70.90838 -5.92761,106.69708 a 0.49999994,0.50000007 62.749717 0 0 0.92177,0.295 c 20.26035,-32.0244 40.63396,-64.22785 61.08762,-96.55782 19.82226,1.91829 40.02817,3.8737 60.27984,5.83354 -13.72407,33.98341 -27.4788,68.04278 -41.24272,102.12478 a 0.50006345,0.49997869 81.89428 0 0 0.77284,0.5803 c 30.67174,-24.1459 61.36387,-48.3077 92.02895,-72.4483 -0.62379,23.7038 -1.27502,48.4504 -1.92466,73.1366 -34.10354,-21.6426 -68.1218,-43.2311 -102.00091,-64.73128 a 0.50000008,0.49999996 26.361481 0 0 -0.73678,0.2485 c -6.61747,17.86718 -13.20734,35.65978 -19.75874,53.34858 a 0.50000004,0.49999995 80.589571 0 0 0.78451,0.5615 c 28.50629,-23.2028 56.84327,-46.26781 84.96258,-69.15564 a 0.50006519,0.50000069 43.303982 0 0 -0.0236,-0.7936 c -16.60597,-11.9563 -33.08139,-23.8186 -49.39678,-35.56568 a 0.5000005,0.49999921 42.01217 0 0 -0.62496,0.0326 c -24.16976,21.55682 -48.10224,42.902 -71.75371,63.9966 6.60568,-21.01811 13.66845,-43.49057 20.63083,-65.64362 2.23483,10.0567 4.83489,21.75698 7.3894,33.25228 -15.12716,3.28851 -30.11487,6.54671 -44.95426,9.77266 -14.601313,3.1742 -29.346239,6.37962 -44.226302,9.61441 14.754097,-21.83606 30.473884,-45.10135 46.429012,-68.71493 -3.773466,10.37702 -9.00846,24.77326 -14.309083,39.34997 -22.682627,1.29615 -45.639266,2.60796 -68.826775,3.93295 a 0.50000041,0.49999966 77.464045 0 0 -0.435713,0.68489 c 10.441849,26.10463 20.986113,52.46529 31.61394,79.03489 a 0.5000452,0.49998365 36.957723 0 0 0.961801,-0.1358 c 1.291725,-12.9173 2.593326,-25.9333 3.902636,-39.0264 13.737227,1.1945 28.045043,2.4386 42.410713,3.6878 -24.855909,7.6935 -52.26177,16.1763 -79.736279,24.6803 5.200548,-24.7026 10.413836,-49.46568 15.631797,-74.251 a 0.4989926,0.50176035 48.647567 0 0 0.0093,-0.1405 C 28.203526,908.11661 24.29097,855.9492 20.380945,803.81553 c 24.490219,31.39772 49.979796,64.07666 75.41277,96.68304 -6.770334,0 -14.547403,0 -22.295048,0 C 57.081668,834.17389 40.635245,767.73034 24.280295,701.65634 c 13.382666,-8.92177 26.981613,-17.98774 40.48212,-26.98808 1.972671,29.59008 3.930527,58.95791 5.870158,88.05239 a 0.5,0.5 49.94696 0 0 0.986322,0.0782 C 76.94268,739.50724 82.21498,716.44093 87.425888,693.6432 a 0.49999975,0.50000056 2.6401931 0 0 -0.553511,-0.60702 c -9.881882,1.31758 -19.646014,2.61947 -29.273174,3.90309 C 45.079699,669.9235 32.59328,642.97912 20.322116,616.49924 c 8.841773,-15.15733 17.658733,-30.27211 26.299676,-45.08516 -1.008979,8.07183 -2.292336,18.33868 -3.543622,28.34897 -6.710972,-4.8807 -13.902191,-10.11068 -20.865176,-15.17467 -4.062975,-46.72421 -8.001539,-92.01769 -11.78012,-135.47138 12.228674,1.93084 24.502853,3.86887 36.128762,5.70454 -8.145199,11.90452 -16.215866,23.70011 -23.711212,34.65485 7.840581,-32.78788 14.905859,-62.3336 21.105094,-88.25767 z"
       id="path28" />
    <path
       d="m 300.33286,980.03353 53.3486,35.56577 -47.42098,7.9035 45.4451,-41.49339 88.91433,27.66219 -63.22796,43.4693 43.46922,-57.30037 102.74546,27.66227 -29.63812,43.4692 -45.4451,-3.9518 100.76958,-21.7346 -73.10734,-5.9276 41.49335,-23.7105 65.20385,31.614 -15.807,25.6864 61.2521,-5.9277 -43.46923,-23.7104 142.26293,23.7104 -13.83112,-13.8311 -61.25209,15.807 -55.32447,-39.5175 -59.27623,33.5899 -81.01083,-21.7346 -63.22797,29.6381 23.71049,-33.5899 19.75874,39.5175 -124.48007,-13.8311 19.75874,13.8311 27.66224,-37.5416 -59.27622,3.9518 z"
       id="path32"
       style="fill:#351fff" />
    <path
       style="fill:url(#linearGradient64);fill-opacity:0.749129;fill-rule:nonzero;stroke:none"
       d="m 300.05551,980.44956 c 14.46478,9.64319 32.06711,21.37804 52.29656,34.86444 -12.68783,2.1146 -28.00811,4.668 -44.50532,7.4175 12.97723,-11.8488 28.1028,-25.65907 43.98416,-40.15946 27.89294,8.67779 57.27282,17.81816 87.65702,27.27106 -18.82237,12.9404 -39.08326,26.8698 -59.82217,41.1278 12.25286,-16.1515 26.69959,-35.1949 41.39037,-54.56008 33.21257,8.94188 67.28727,18.11578 101.74091,27.39178 -9.33769,13.6953 -19.1764,28.1254 -29.07678,42.6459 -13.69233,-1.1906 -27.7561,-2.4136 -41.84841,-3.639 32.497,-7.0092 65.04851,-14.0301 97.52656,-21.0351 a 0.50002111,0.49998837 41.230202 0 0 -0.0651,-0.9872 c -23.91941,-1.9394 -47.7839,-3.8743 -71.49634,-5.7969 12.46467,-7.1227 26.23959,-14.9941 39.86114,-22.7779 21.6171,10.4811 43.21956,20.955 64.46918,31.2578 -5.27162,8.5664 -10.45281,16.9859 -15.51728,25.2156 a 0.49998777,0.50000699 13.040598 0 0 0.47396,0.7598 c 20.97558,-2.0299 41.43445,-4.0099 61.25212,-5.9277 a 0.5,0.5 56.613159 0 0 0.19127,-0.9366 c -13.2434,-7.2237 -26.89026,-14.6674 -40.86685,-22.291 45.48543,7.5809 92.00994,15.335 139.33892,23.2231 a 0.50000071,0.49999816 72.231004 0 0 0.43575,-0.8468 c -4.54149,-4.5414 -9.15917,-9.1591 -13.8311,-13.831 a 0.50003199,0.49999762 60.263828 0 0 -0.47851,-0.1306 c -20.14419,5.1985 -40.51616,10.4558 -61.02629,15.7487 -18.28319,-13.0594 -36.68734,-26.2053 -55.13466,-39.3819 a 0.50009791,0.49999523 47.996963 0 0 -0.53718,-0.028 c -19.6809,11.1525 -39.40767,22.331 -59.09801,33.4889 -27.02646,-7.251 -54.00208,-14.4884 -80.81291,-21.6815 a 0.50025306,0.49994662 39.938342 0 0 -0.34185,0.03 c -20.66008,9.6844 -41.19479,19.31 -61.51854,28.8368 6.75053,-9.5633 14.50504,-20.5489 22.13981,-31.3648 6.19331,12.3866 12.65326,25.3065 18.97398,37.948 -42.26742,-4.6964 -83.53729,-9.2819 -123.5666,-13.7296 a 0.49999554,0.50000876 65.666749 0 0 -0.34197,0.9065 c 6.82973,4.7808 13.43194,9.4024 19.75874,13.8311 a 0.5,0.5 35.688189 0 0 0.68926,-0.113 c 9.71399,-13.1833 18.96422,-25.7372 27.66224,-37.5416 a 0.5,0.5 16.326477 0 0 -0.43579,-0.7955 c -21.20579,1.4137 -40.87983,2.7254 -58.74296,3.9163 0,-22.7438 0,-42.51884 0,-58.74187 z m -0.22265,-0.41603 c 0,16.34998 0,36.30777 0,59.27627 a 0.49999999,0.50000001 88.092937 0 0 0.53326,0.4989 c 17.70306,-1.1802 37.19469,-2.4797 58.20149,-3.8802 -7.97263,10.82 -17.1255,23.2418 -26.73382,36.2816 -5.43043,-3.8013 -11.49452,-8.0461 -17.755,-12.4284 39.70907,4.4121 80.63263,8.9591 122.53415,13.6148 a 0.49999606,0.50000922 79.887981 0 0 0.50245,-0.7205 c -6.45161,-12.9032 -13.04928,-26.0986 -19.75875,-39.5175 a 0.49999969,0.50000029 49.326245 0 0 -0.85569,-0.065 c -7.79031,11.0362 -15.70623,22.2505 -23.71049,33.5899 a 0.5,0.5 5.0513613 0 0 0.6207,0.741 c 20.82729,-9.7628 41.87891,-19.6307 63.06259,-29.5606 26.81817,7.1952 53.80097,14.4344 80.83435,21.6873 a 0.50021701,0.49996189 37.729358 0 0 0.37615,-0.048 c 19.65696,-11.1389 39.35048,-22.2986 58.99869,-33.4326 18.42421,13.1601 36.80499,26.2893 55.06483,39.332 a 0.50013769,0.49999356 55.528389 0 0 0.41561,0.077 c 20.49256,-5.2884 40.84754,-10.5413 60.97555,-15.7356 4.09219,4.0922 8.34049,8.3405 12.52591,12.5259 -47.81288,-7.9688 -94.80155,-15.8002 -140.72387,-23.4539 a 0.49998594,0.50001943 64.038141 0 0 -0.32169,0.9321 c 14.38208,7.8448 28.42186,15.5028 42.03967,22.9307 -17.88142,1.7305 -38.00461,3.6779 -58.63013,5.6739 4.98958,-8.108 10.09121,-16.3982 15.27986,-24.8298 a 0.50000186,0.49999922 28.736906 0 0 -0.2077,-0.7119 c -21.40987,-10.3806 -43.17893,-20.9353 -65.20379,-31.614 a 0.50013139,0.49998741 43.056076 0 0 -0.46626,0.016 c -13.69614,7.8263 -27.54771,15.7415 -41.49335,23.7105 a 0.50002562,0.49999433 32.443795 0 0 0.20772,0.9325 c 23.12783,1.8752 46.40249,3.7623 69.73377,5.654 -32.46057,7.0013 -64.99017,14.0175 -97.46108,21.021 a 0.5000132,0.4999928 41.398061 0 0 0.0621,0.9869 c 15.19831,1.3216 30.36812,2.6408 45.44503,3.9518 a 0.50007235,0.49999563 19.626203 0 0 0.45646,-0.2164 c 9.95602,-14.6022 19.84992,-29.1132 29.63812,-43.4692 a 0.5,0.5 24.677703 0 0 -0.28312,-0.7645 c -34.68516,-9.3383 -68.98745,-18.5736 -102.74546,-27.66228 a 0.50000176,0.49999877 26.126532 0 0 -0.52834,0.18062 c -14.76082,19.45746 -29.27569,38.59076 -43.46922,57.30036 a 0.50000461,0.49999547 1.3375625 0 0 0.68162,0.7142 c 21.63114,-14.8714 42.74916,-29.3901 63.22794,-43.4693 a 0.49999062,0.50000806 36.387068 0 0 -0.1347,-0.8894 c -30.73378,-9.56163 -60.44375,-18.80472 -88.91435,-27.66222 a 0.5,0.5 32.442006 0 0 -0.48566,0.10819 c -15.9587,14.57099 -31.15551,28.44633 -45.4451,41.49343 a 0.5,0.5 19.072658 0 0 0.41933,0.8624 c 17.13361,-2.8556 33.0173,-5.5029 47.42098,-7.9035 a 0.49999999,0.50000001 57.113885 0 0 0.19515,-0.9092 c -20.67164,-13.7811 -38.63363,-25.75581 -53.3486,-35.5658 z"
       id="path31" />
    <path
       d="m 624.3762,691.55592 c 5.05645,-4.02891 8.94182,-9.47591 11.26814,-15.50815 2.32633,-6.03225 3.10591,-12.6323 2.42307,-19.06141 -1.36569,-12.85823 -8.59821,-24.7353 -18.6088,-32.91986 -10.0106,-8.18456 -22.61269,-12.84375 -35.43414,-14.51991 -12.82145,-1.67616 -25.88656,-0.48781 -38.55637,2.09581 -25.33961,5.16723 -49.3236,15.83206 -74.71542,20.73631 -12.69591,2.45212 -25.78913,3.43725 -38.57307,1.4956 -12.78393,-1.94164 -25.2777,-6.93381 -35.02892,-15.42573 -12.3746,-10.7765 -19.73568,-27.05998 -19.75874,-43.46923 -0.0177,-12.62329 4.09224,-24.98387 10.05034,-36.11261 5.95811,-11.12873 13.73053,-21.16811 21.56364,-31.06711 24.44757,-30.89533 50.12259,-61.39927 67.22397,-96.89219 8.5507,-17.74645 14.87544,-36.68051 17.3494,-56.22356 2.47396,-19.54304 1.01384,-39.72539 -5.53841,-58.30277 -8.13285,-23.0588 -23.59525,-42.64013 -37.18135,-62.96915 -13.5861,-20.32903 -25.83071,-42.98849 -26.04662,-67.43854 -0.10991,-12.44653 2.98756,-24.87812 8.69876,-35.93753 5.71119,-11.05941 14.00845,-20.74159 23.90919,-28.28504 19.80147,-15.086916 45.74912,-21.235828 70.49946,-18.564889 24.75033,2.670938 48.22566,13.785461 67.32793,29.748429 19.10228,15.96296 33.97152,36.61678 44.93493,58.96665 5.89712,12.02179 10.74059,24.67732 12.8652,37.89797 2.12461,13.22065 1.43082,27.0747 -3.43421,39.54991 -4.86504,12.47521 -14.129,23.45591 -26.28175,29.07821 -6.07637,2.81115 -12.80198,4.25957 -19.49243,4.00897 -6.69045,-0.2506 -13.33313,-2.21883 -18.98128,-5.81373 -6.88162,-4.37997 -12.12753,-11.05184 -15.59436,-18.43574 -3.46683,-7.3839 -5.23506,-15.47122 -6.092,-23.58334 -1.71389,-16.22425 0.11927,-32.69803 -2.02413,-48.87113 -1.10805,-8.36081 -3.29832,-16.6315 -7.09179,-24.16413 -3.79347,-7.53263 -9.23795,-14.31593 -16.17151,-19.11768 -6.93355,-4.80174 -15.39592,-7.53982 -23.8163,-7.0621 -8.42037,0.47771 -16.72084,4.31081 -22.07599,10.82643 -4.53761,5.52091 -6.81146,12.70086 -7.04437,19.84341 -0.2329,7.14256 1.48096,14.25407 4.22812,20.85129 5.49433,13.19446 14.93008,24.28811 22.57499,36.36439 18.92994,29.90267 26.74371,66.32938 23.65098,101.58484 -3.09274,35.25546 -16.80599,69.25544 -37.4821,97.97844 -25.2544,35.08311 -60.60996,62.60791 -81.96596,100.19156 -10.678,18.79182 -17.61301,40.23321 -16.40794,61.8133 0.60254,10.79004 3.25596,21.50733 8.16727,31.13371 4.91131,9.62638 12.1108,18.13631 21.05104,24.20757 12.30358,8.35528 27.17861,11.77256 41.49336,15.807 27.10723,7.63985 53.38015,18.01916 79.03496,29.63811 12.07601,5.46917 24.20589,11.27456 37.26299,13.56677 6.52855,1.1461 13.25576,1.38739 19.78278,0.23259 6.52702,-1.15479 12.85342,-3.74119 18.03744,-7.87174 z"
       id="path37"
       style="fill:#351fff" />
    <path
       style="fill:url(#radialGradient62);fill-opacity:0.749129;fill-rule:nonzero;stroke:none"
       d="m 624.3762,691.55592 c 5.05645,-4.02891 8.94182,-9.47591 11.26814,-15.50815 2.32633,-6.03225 3.10591,-12.6323 2.42307,-19.06141 -1.36569,-12.85823 -8.59821,-24.7353 -18.6088,-32.91986 -10.0106,-8.18456 -22.61269,-12.84375 -35.43414,-14.51991 -12.82145,-1.67616 -25.88656,-0.48781 -38.55637,2.09581 -25.33961,5.16723 -49.3236,15.83206 -74.71542,20.73631 -12.69591,2.45212 -25.78913,3.43725 -38.57307,1.4956 -12.78393,-1.94164 -25.2777,-6.93381 -35.02892,-15.42573 -12.3746,-10.7765 -19.73568,-27.05998 -19.75874,-43.46923 -0.0177,-12.62329 4.09224,-24.98387 10.05034,-36.11261 5.95811,-11.12873 13.73053,-21.16811 21.56364,-31.06711 24.44757,-30.89533 50.12259,-61.39927 67.22397,-96.89219 8.5507,-17.74645 14.87544,-36.68051 17.3494,-56.22356 2.47396,-19.54304 1.01384,-39.72539 -5.53841,-58.30277 -8.13285,-23.0588 -23.59525,-42.64013 -37.18135,-62.96915 -13.5861,-20.32903 -25.83071,-42.98849 -26.04662,-67.43854 -0.10991,-12.44653 2.98756,-24.87812 8.69876,-35.93753 5.71119,-11.05941 14.00845,-20.74159 23.90919,-28.28504 19.80147,-15.086916 45.74912,-21.235828 70.49946,-18.564889 24.75033,2.670938 48.22566,13.785461 67.32793,29.748429 19.10228,15.96296 33.97152,36.61678 44.93493,58.96665 5.89712,12.02179 10.74059,24.67732 12.8652,37.89797 2.12461,13.22065 1.43082,27.0747 -3.43421,39.54991 -4.86504,12.47521 -14.129,23.45591 -26.28175,29.07821 -6.07637,2.81115 -12.80198,4.25957 -19.49243,4.00897 -6.69045,-0.2506 -13.33313,-2.21883 -18.98128,-5.81373 -6.88162,-4.37997 -12.12753,-11.05184 -15.59436,-18.43574 -3.46683,-7.3839 -5.23506,-15.47122 -6.092,-23.58334 -1.71389,-16.22425 0.11927,-32.69803 -2.02413,-48.87113 -1.10805,-8.36081 -3.29832,-16.6315 -7.09179,-24.16413 -3.79347,-7.53263 -9.23795,-14.31593 -16.17151,-19.11768 -6.93355,-4.80174 -15.39592,-7.53982 -23.8163,-7.0621 -8.42037,0.47771 -16.72084,4.31081 -22.07599,10.82643 -4.53761,5.52091 -6.81146,12.70086 -7.04437,19.84341 -0.2329,7.14256 1.48096,14.25407 4.22812,20.85129 5.49433,13.19446 14.93008,24.28811 22.57499,36.36439 18.92994,29.90267 26.74371,66.32938 23.65098,101.58484 -3.09274,35.25546 -16.80599,69.25544 -37.4821,97.97844 -25.2544,35.08311 -60.60996,62.60791 -81.96596,100.19156 -10.678,18.79182 -17.61301,40.23321 -16.40794,61.8133 0.60254,10.79004 3.25596,21.50733 8.16727,31.13371 4.91131,9.62638 12.1108,18.13631 21.05104,24.20757 12.30358,8.35528 27.17861,11.77256 41.49336,15.807 27.10723,7.63985 53.38015,18.01916 79.03496,29.63811 12.07601,5.46917 24.20589,11.27456 37.26299,13.56677 6.52855,1.1461 13.25576,1.38739 19.78278,0.23259 6.52702,-1.15479 12.85342,-3.74119 18.03744,-7.87174 z"
       id="path35" />
    <path
       style="fill:#351fff;fill-opacity:0.749129"
       id="path39"
       d="m 695.50764,319.10367 a 19.758741,119.54038 0 0 1 -0.005,2.60902 l -19.75404,-2.60902 z" />
    <ellipse
       style="fill:#1f62ff;fill-opacity:0.44982699;stroke-width:2.48293"
       id="path40"
       cx="368.50043"
       cy="271.68268"
       rx="807.14453"
       ry="332.93478" />
    <ellipse
       style="fill:#351fff;fill-opacity:0.33910036;stroke-width:1.14573"
       id="path41"
       cx="974.1059"
       cy="566.08789"
       rx="327.99509"
       ry="817.02393" />
    <ellipse
       style="fill:#1f3eff;fill-opacity:0.26297578;stroke:none;stroke-width:1.70293;stroke-opacity:1"
       id="path64"
       cx="548.30505"
       cy="693.5318"
       rx="1012.6354"
       ry="968.17828" />
    <ellipse
       style="fill:#351fff;fill-opacity:0.3391;stroke:none;stroke-opacity:1"
       id="path65"
       cx="562.13617"
       cy="1188.4883"
       rx="34.577797"
       ry="4.9396853" />
  </g>
</svg>
